<svg xmlns="http://www.w3.org/2000/svg" width="90" height="90" fill="none" viewBox="0 0 90 90"><g opacity="0.993"><mask id="a" width="84" height="64" x="3" y="13" fill="#000" maskUnits="userSpaceOnUse"><path fill="#fff" d="M3 13h84v64H3z"/><path fill-rule="evenodd" d="M40.281 15h1.907q3.179.103 6.218 1.078a12.9 12.9 0 0 1 4.469 2.563q2.312 2.226 2.484 5.453a12.8 12.8 0 0 1-1.03 5.781 20.1 20.1 0 0 1-5.923 7.64 20.7 20.7 0 0 1-6.25 3.407 29.4 29.4 0 0 1-9.437 1.703 19 19 0 0 1-3.782-.39q-2.91-.686-4.828-2.954-.496-.66-.687-1.468-.032-.204 0-.407a.45.45 0 0 1 .406-.343.7.7 0 0 1 .328.171 6.6 6.6 0 0 0 2.657 1.907q2.02.772 4.187.765 7.872-.34 14.156-5.015a18.6 18.6 0 0 0 4.266-4.578q.804-1.28 1.281-2.72a6.67 6.67 0 0 0 .156-3.75 3.84 3.84 0 0 0-1.265-1.952 8.5 8.5 0 0 0-3.344-1.563 18.8 18.8 0 0 0-5.344-.437q-5.118.346-9.906 2.187a56.3 56.3 0 0 0-12.906 7.094 28.6 28.6 0 0 0-4.328 4.078 13.2 13.2 0 0 0-2.344 4.156q-1.27 3.92 1.125 7.25a20 20 0 0 0 3.328 3.422 861 861 0 0 1 5.469 4.313 21 21 0 0 1 2.203 2.109 966 966 0 0 1 7.922-4.328 14.4 14.4 0 0 1 4.593-4.094 6.2 6.2 0 0 1 2.25-.719q2.313-.12 2.797 2.141a8 8 0 0 1 .094 1.844q-.052.551-.125 1.093.194-.114.36-.265a1.5 1.5 0 0 1 1.218-.125q.546.136.922.547.188.274.203.61a9 9 0 0 1-.234 1.077 113 113 0 0 0-1.781 7.188 7.3 7.3 0 0 0-.094 2.062.6.6 0 0 0 .094.282q.32-.338.53-.75.496-.945.97-1.907a638 638 0 0 0 5.968-13.375q.417-1.166.688-2.375.09-.56.64-.703a8.6 8.6 0 0 1 2.485-.36 3.25 3.25 0 0 1 1.578.329q.3.205.375.562a27 27 0 0 0-.922 3.141 8 8 0 0 0-.094 1.781 21 21 0 0 0 .282 2q.397 1.209 1.03 2.313a91 91 0 0 0 4.22-7.657q.342-.73.593-1.5.27-1.357.75-2.656.191-.201.453-.297a7.4 7.4 0 0 1 2.47-.359q.704-.044 1.374.172.297.125.516.36.102.148.11.327l-.704 2.297a8 8 0 0 0-.281 2.719q.1.975.281 1.938.115.362.25.718.6 1.325 1.297 2.594 5.031-2.38 10.5-1.328a11.1 11.1 0 0 1 5.406 2.812 8.16 8.16 0 0 1 2.328 4.297q.662 4.404-3.359 6.266a1.65 1.65 0 0 1-.906.094q-.336-.36.062-.657a5.45 5.45 0 0 0 2.203-2.14 3.75 3.75 0 0 0 .282-2.719 6.25 6.25 0 0 0-1.985-3.14 9.7 9.7 0 0 0-3.437-1.813 17.36 17.36 0 0 0-8.156-.281 10.7 10.7 0 0 0-2.094.672q.606 1.464.656 3.046a4.56 4.56 0 0 1-.766 2.578 9.93 9.93 0 0 1-3.859 3.204q-1.045.436-2.125.78-1.086.31-2-.343a1.94 1.94 0 0 1-.64-1.39 6.3 6.3 0 0 1 .437-2.47q.642-1.549 1.687-2.843.592-.702 1.22-1.375.657-.598 1.296-1.203a28 28 0 0 1-1.234-2.672 31 31 0 0 1-.938-3.656 61.6 61.6 0 0 1-4.766 8.11 9.7 9.7 0 0 1 .938 3.78q-.028 2.666-2.031 4.407a11.25 11.25 0 0 1-4.625 2.156 8.5 8.5 0 0 1-2.219.156 1.75 1.75 0 0 1-1.328-.61 1.42 1.42 0 0 1-.156-1.124q.168-.556.53-1a352 352 0 0 1 4.032-4.875q.645-.868 1.266-1.75a92 92 0 0 0-.985-2.063 13.8 13.8 0 0 1-.968-2.781 70 70 0 0 1-.47-2 112 112 0 0 1-5.093 11.125l-1.906 3.5a8 8 0 0 1-2.078 2.36q-1.155.731-2.282-.032a2.7 2.7 0 0 1-.671-.984 6.7 6.7 0 0 1-.375-1.938q-.032-.718 0-1.437.052-.753.125-1.5a58 58 0 0 1-2.25 4.906 6.8 6.8 0 0 1-1.391 1.89 2.78 2.78 0 0 1-2.156.532 2.42 2.42 0 0 1-1.703-.89 9.3 9.3 0 0 1-1.594-3.22 12.8 12.8 0 0 1-.344-5.843q.226-1.833.828-3.578l-.031-.047a116 116 0 0 0-4.406 2.515q.735 1.471.922 3.11.587 4.686-1.688 8.812-2.788 4.58-7.953 6.078-1.3.33-2.625.391h-.656q-1.447-.059-2.844-.484a4.16 4.16 0 0 1-1.828-1.766q-1.176-2.216-.719-4.687a9.2 9.2 0 0 1 1.906-4.157 18 18 0 0 1 2.547-2.484 42.3 42.3 0 0 1 5.906-3.906q1.29-.7 2.594-1.375a29 29 0 0 0-1.781-1.407 548 548 0 0 0-4.594-3.187 52 52 0 0 1-4.156-3.281 55 55 0 0 1-1.578-1.547 15.4 15.4 0 0 1-2.75-3.969A10.6 10.6 0 0 1 5 40.156v-1.312q.276-2.04 1.172-3.907a23.5 23.5 0 0 1 3.875-5.562 38 38 0 0 1 6.422-5.453 63 63 0 0 1 15.625-7.531A33.4 33.4 0 0 1 40.28 15m-2 33.531q.235-.008.469.016.365.144.344.547a10 10 0 0 1-.266 1.5 51 51 0 0 1-1.469 4.593q-.622 1.574-1.218 3.157a29.5 29.5 0 0 1-1.688 3.687q-.995 1.65-1.562-.187a8.7 8.7 0 0 1-.266-2.328 14.54 14.54 0 0 1 1.953-7.203 19 19 0 0 1 1.25-1.97 5.8 5.8 0 0 1 1.984-1.64q.238-.092.47-.172m26.25 6.188q.608 1.82-.297 3.531a4.5 4.5 0 0 1-1.609 1.578q-.51.275-1.047.484a.41.41 0 0 1-.14-.328 9.75 9.75 0 0 1 1.859-3.953q.592-.678 1.234-1.312m-41.969 3.093q1.472 5.523-2.359 9.75a9.5 9.5 0 0 1-4.484 2.766 4.6 4.6 0 0 1-1.938.063q-1.053-.321-1.203-1.422a4.9 4.9 0 0 1 .219-2.156 9.23 9.23 0 0 1 2.703-4.047 42 42 0 0 1 4.625-3.47 139 139 0 0 0 2.438-1.483m31.376.5q.073.67-.172 1.313a5.5 5.5 0 0 1-1.453 2.047 9.3 9.3 0 0 1-1.657 1.187.92.92 0 0 1-.562.11l-.032-.047 2.485-2.797q.724-.888 1.39-1.812" clip-rule="evenodd"/></mask><path fill="#CD6699" fill-rule="evenodd" d="M40.281 15h1.907q3.179.103 6.218 1.078a12.9 12.9 0 0 1 4.469 2.563q2.312 2.226 2.484 5.453a12.8 12.8 0 0 1-1.03 5.781 20.1 20.1 0 0 1-5.923 7.64 20.7 20.7 0 0 1-6.25 3.407 29.4 29.4 0 0 1-9.437 1.703 19 19 0 0 1-3.782-.39q-2.91-.686-4.828-2.954-.496-.66-.687-1.468-.032-.204 0-.407a.45.45 0 0 1 .406-.343.7.7 0 0 1 .328.171 6.6 6.6 0 0 0 2.657 1.907q2.02.772 4.187.765 7.872-.34 14.156-5.015a18.6 18.6 0 0 0 4.266-4.578q.804-1.28 1.281-2.72a6.67 6.67 0 0 0 .156-3.75 3.84 3.84 0 0 0-1.265-1.952 8.5 8.5 0 0 0-3.344-1.563 18.8 18.8 0 0 0-5.344-.437q-5.118.346-9.906 2.187a56.3 56.3 0 0 0-12.906 7.094 28.6 28.6 0 0 0-4.328 4.078 13.2 13.2 0 0 0-2.344 4.156q-1.27 3.92 1.125 7.25a20 20 0 0 0 3.328 3.422 861 861 0 0 1 5.469 4.313 21 21 0 0 1 2.203 2.109 966 966 0 0 1 7.922-4.328 14.4 14.4 0 0 1 4.593-4.094 6.2 6.2 0 0 1 2.25-.719q2.313-.12 2.797 2.141a8 8 0 0 1 .094 1.844q-.052.551-.125 1.093.194-.114.36-.265a1.5 1.5 0 0 1 1.218-.125q.546.136.922.547.188.274.203.61a9 9 0 0 1-.234 1.077 113 113 0 0 0-1.781 7.188 7.3 7.3 0 0 0-.094 2.062.6.6 0 0 0 .094.282q.32-.338.53-.75.496-.945.97-1.907a638 638 0 0 0 5.968-13.375q.417-1.166.688-2.375.09-.56.64-.703a8.6 8.6 0 0 1 2.485-.36 3.25 3.25 0 0 1 1.578.329q.3.205.375.562a27 27 0 0 0-.922 3.141 8 8 0 0 0-.094 1.781 21 21 0 0 0 .282 2q.397 1.209 1.03 2.313a91 91 0 0 0 4.22-7.657q.342-.73.593-1.5.27-1.357.75-2.656.191-.201.453-.297a7.4 7.4 0 0 1 2.47-.359q.704-.044 1.374.172.297.125.516.36.102.148.11.327l-.704 2.297a8 8 0 0 0-.281 2.719q.1.975.281 1.938.115.362.25.718.6 1.325 1.297 2.594 5.031-2.38 10.5-1.328a11.1 11.1 0 0 1 5.406 2.812 8.16 8.16 0 0 1 2.328 4.297q.662 4.404-3.359 6.266a1.65 1.65 0 0 1-.906.094q-.336-.36.062-.657a5.45 5.45 0 0 0 2.203-2.14 3.75 3.75 0 0 0 .282-2.719 6.25 6.25 0 0 0-1.985-3.14 9.7 9.7 0 0 0-3.437-1.813 17.36 17.36 0 0 0-8.156-.281 10.7 10.7 0 0 0-2.094.672q.606 1.464.656 3.046a4.56 4.56 0 0 1-.766 2.578 9.93 9.93 0 0 1-3.859 3.204q-1.045.436-2.125.78-1.086.31-2-.343a1.94 1.94 0 0 1-.64-1.39 6.3 6.3 0 0 1 .437-2.47q.642-1.549 1.687-2.843.592-.702 1.22-1.375.657-.598 1.296-1.203a28 28 0 0 1-1.234-2.672 31 31 0 0 1-.938-3.656 61.6 61.6 0 0 1-4.766 8.11 9.7 9.7 0 0 1 .938 3.78q-.028 2.666-2.031 4.407a11.25 11.25 0 0 1-4.625 2.156 8.5 8.5 0 0 1-2.219.156 1.75 1.75 0 0 1-1.328-.61 1.42 1.42 0 0 1-.156-1.124q.168-.556.53-1a352 352 0 0 1 4.032-4.875q.645-.868 1.266-1.75a92 92 0 0 0-.985-2.063 13.8 13.8 0 0 1-.968-2.781 70 70 0 0 1-.47-2 112 112 0 0 1-5.093 11.125l-1.906 3.5a8 8 0 0 1-2.078 2.36q-1.155.731-2.282-.032a2.7 2.7 0 0 1-.671-.984 6.7 6.7 0 0 1-.375-1.938q-.032-.718 0-1.437.052-.753.125-1.5a58 58 0 0 1-2.25 4.906 6.8 6.8 0 0 1-1.391 1.89 2.78 2.78 0 0 1-2.156.532 2.42 2.42 0 0 1-1.703-.89 9.3 9.3 0 0 1-1.594-3.22 12.8 12.8 0 0 1-.344-5.843q.226-1.833.828-3.578l-.031-.047a116 116 0 0 0-4.406 2.515q.735 1.471.922 3.11.587 4.686-1.688 8.812-2.788 4.58-7.953 6.078-1.3.33-2.625.391h-.656q-1.447-.059-2.844-.484a4.16 4.16 0 0 1-1.828-1.766q-1.176-2.216-.719-4.687a9.2 9.2 0 0 1 1.906-4.157 18 18 0 0 1 2.547-2.484 42.3 42.3 0 0 1 5.906-3.906q1.29-.7 2.594-1.375a29 29 0 0 0-1.781-1.407 548 548 0 0 0-4.594-3.187 52 52 0 0 1-4.156-3.281 55 55 0 0 1-1.578-1.547 15.4 15.4 0 0 1-2.75-3.969A10.6 10.6 0 0 1 5 40.156v-1.312q.276-2.04 1.172-3.907a23.5 23.5 0 0 1 3.875-5.562 38 38 0 0 1 6.422-5.453 63 63 0 0 1 15.625-7.531A33.4 33.4 0 0 1 40.28 15m-2 33.531q.235-.008.469.016.365.144.344.547a10 10 0 0 1-.266 1.5 51 51 0 0 1-1.469 4.593q-.622 1.574-1.218 3.157a29.5 29.5 0 0 1-1.688 3.687q-.995 1.65-1.562-.187a8.7 8.7 0 0 1-.266-2.328 14.54 14.54 0 0 1 1.953-7.203 19 19 0 0 1 1.25-1.97 5.8 5.8 0 0 1 1.984-1.64q.238-.092.47-.172m26.25 6.188q.608 1.82-.297 3.531a4.5 4.5 0 0 1-1.609 1.578q-.51.275-1.047.484a.41.41 0 0 1-.14-.328 9.75 9.75 0 0 1 1.859-3.953q.592-.678 1.234-1.312m-41.969 3.093q1.472 5.523-2.359 9.75a9.5 9.5 0 0 1-4.484 2.766 4.6 4.6 0 0 1-1.938.063q-1.053-.321-1.203-1.422a4.9 4.9 0 0 1 .219-2.156 9.23 9.23 0 0 1 2.703-4.047 42 42 0 0 1 4.625-3.47 139 139 0 0 0 2.438-1.483m31.376.5q.073.67-.172 1.313a5.5 5.5 0 0 1-1.453 2.047 9.3 9.3 0 0 1-1.657 1.187.92.92 0 0 1-.562.11l-.032-.047 2.485-2.797q.724-.888 1.39-1.812" clip-rule="evenodd"/><path stroke="#9B4A73" stroke-width="4" d="M40.281 15h1.907q3.179.103 6.218 1.078a12.9 12.9 0 0 1 4.469 2.563q2.312 2.226 2.484 5.453a12.8 12.8 0 0 1-1.03 5.781 20.1 20.1 0 0 1-5.923 7.64 20.7 20.7 0 0 1-6.25 3.407 29.4 29.4 0 0 1-9.437 1.703 19 19 0 0 1-3.782-.39q-2.91-.686-4.828-2.954-.496-.66-.687-1.468-.032-.204 0-.407a.45.45 0 0 1 .406-.343.7.7 0 0 1 .328.171 6.6 6.6 0 0 0 2.657 1.907q2.02.772 4.187.765 7.872-.34 14.156-5.015a18.6 18.6 0 0 0 4.266-4.578q.804-1.28 1.281-2.72a6.67 6.67 0 0 0 .156-3.75 3.84 3.84 0 0 0-1.265-1.952 8.5 8.5 0 0 0-3.344-1.563 18.8 18.8 0 0 0-5.344-.437q-5.118.346-9.906 2.187a56.3 56.3 0 0 0-12.906 7.094 28.6 28.6 0 0 0-4.328 4.078 13.2 13.2 0 0 0-2.344 4.156q-1.27 3.92 1.125 7.25a20 20 0 0 0 3.328 3.422 861 861 0 0 1 5.469 4.313 21 21 0 0 1 2.203 2.109 966 966 0 0 1 7.922-4.328 14.4 14.4 0 0 1 4.593-4.094 6.2 6.2 0 0 1 2.25-.719q2.313-.12 2.797 2.141a8 8 0 0 1 .094 1.844q-.052.551-.125 1.093.194-.114.36-.265a1.5 1.5 0 0 1 1.218-.125q.546.136.922.547.188.274.203.61a9 9 0 0 1-.234 1.077 113 113 0 0 0-1.781 7.188 7.3 7.3 0 0 0-.094 2.062.6.6 0 0 0 .094.282q.32-.338.53-.75.496-.945.97-1.907a638 638 0 0 0 5.968-13.375q.417-1.166.688-2.375.09-.56.64-.703a8.6 8.6 0 0 1 2.485-.36 3.25 3.25 0 0 1 1.578.329q.3.205.375.562a27 27 0 0 0-.922 3.141 8 8 0 0 0-.094 1.781 21 21 0 0 0 .282 2q.397 1.209 1.03 2.313a91 91 0 0 0 4.22-7.657q.342-.73.593-1.5.27-1.357.75-2.656.191-.201.453-.297a7.4 7.4 0 0 1 2.47-.359q.704-.044 1.374.172.297.125.516.36.102.148.11.327l-.704 2.297a8 8 0 0 0-.281 2.719q.1.975.281 1.938.115.362.25.718.6 1.325 1.297 2.594 5.031-2.38 10.5-1.328a11.1 11.1 0 0 1 5.406 2.812 8.16 8.16 0 0 1 2.328 4.297q.662 4.404-3.359 6.266a1.65 1.65 0 0 1-.906.094q-.336-.36.062-.657a5.45 5.45 0 0 0 2.203-2.14 3.75 3.75 0 0 0 .282-2.719 6.25 6.25 0 0 0-1.985-3.14 9.7 9.7 0 0 0-3.437-1.813 17.36 17.36 0 0 0-8.156-.281 10.7 10.7 0 0 0-2.094.672q.606 1.464.656 3.046a4.56 4.56 0 0 1-.766 2.578 9.93 9.93 0 0 1-3.859 3.204q-1.045.436-2.125.78-1.086.31-2-.343a1.94 1.94 0 0 1-.64-1.39 6.3 6.3 0 0 1 .437-2.47q.642-1.549 1.687-2.843.592-.702 1.22-1.375.657-.598 1.296-1.203a28 28 0 0 1-1.234-2.672 31 31 0 0 1-.938-3.656 61.6 61.6 0 0 1-4.766 8.11 9.7 9.7 0 0 1 .938 3.78q-.028 2.666-2.031 4.407a11.25 11.25 0 0 1-4.625 2.156 8.5 8.5 0 0 1-2.219.156 1.75 1.75 0 0 1-1.328-.61 1.42 1.42 0 0 1-.156-1.124q.168-.556.53-1a352 352 0 0 1 4.032-4.875q.645-.868 1.266-1.75a92 92 0 0 0-.985-2.063 13.8 13.8 0 0 1-.968-2.781 70 70 0 0 1-.47-2 112 112 0 0 1-5.093 11.125l-1.906 3.5a8 8 0 0 1-2.078 2.36q-1.155.731-2.282-.032a2.7 2.7 0 0 1-.671-.984 6.7 6.7 0 0 1-.375-1.938q-.032-.718 0-1.437.052-.753.125-1.5a58 58 0 0 1-2.25 4.906 6.8 6.8 0 0 1-1.391 1.89 2.78 2.78 0 0 1-2.156.532 2.42 2.42 0 0 1-1.703-.89 9.3 9.3 0 0 1-1.594-3.22 12.8 12.8 0 0 1-.344-5.843q.226-1.833.828-3.578l-.031-.047a116 116 0 0 0-4.406 2.515q.735 1.471.922 3.11.587 4.686-1.688 8.812-2.788 4.58-7.953 6.078-1.3.33-2.625.391h-.656q-1.447-.059-2.844-.484a4.16 4.16 0 0 1-1.828-1.766q-1.176-2.216-.719-4.687a9.2 9.2 0 0 1 1.906-4.157 18 18 0 0 1 2.547-2.484 42.3 42.3 0 0 1 5.906-3.906q1.29-.7 2.594-1.375a29 29 0 0 0-1.781-1.407 548 548 0 0 0-4.594-3.187 52 52 0 0 1-4.156-3.281 55 55 0 0 1-1.578-1.547 15.4 15.4 0 0 1-2.75-3.969A10.6 10.6 0 0 1 5 40.156v-1.312q.276-2.04 1.172-3.907a23.5 23.5 0 0 1 3.875-5.562 38 38 0 0 1 6.422-5.453 63 63 0 0 1 15.625-7.531A33.4 33.4 0 0 1 40.28 15Zm-2 33.531q.235-.008.469.016.365.144.344.547a10 10 0 0 1-.266 1.5 51 51 0 0 1-1.469 4.593q-.622 1.574-1.218 3.157a29.5 29.5 0 0 1-1.688 3.687q-.995 1.65-1.562-.187a8.7 8.7 0 0 1-.266-2.328 14.54 14.54 0 0 1 1.953-7.203 19 19 0 0 1 1.25-1.97 5.8 5.8 0 0 1 1.984-1.64q.238-.092.47-.172Zm26.25 6.188q.608 1.82-.297 3.531a4.5 4.5 0 0 1-1.609 1.578q-.51.275-1.047.484a.41.41 0 0 1-.14-.328 9.75 9.75 0 0 1 1.859-3.953q.592-.678 1.234-1.312Zm-41.969 3.093q1.472 5.523-2.359 9.75a9.5 9.5 0 0 1-4.484 2.766 4.6 4.6 0 0 1-1.938.063q-1.053-.321-1.203-1.422a4.9 4.9 0 0 1 .219-2.156 9.23 9.23 0 0 1 2.703-4.047 42 42 0 0 1 4.625-3.47 139 139 0 0 0 2.438-1.483Zm31.376.5q.073.67-.172 1.313a5.5 5.5 0 0 1-1.453 2.047 9.3 9.3 0 0 1-1.657 1.187.92.92 0 0 1-.562.11l-.032-.047 2.485-2.797q.724-.888 1.39-1.812Z" clip-rule="evenodd" mask="url(#a)"/></g></svg>